<svg width="24" height="25" viewBox="0 0 24 25" fill="none" xmlns="http://www.w3.org/2000/svg">
<path d="M9.37489 11.677C9.48893 11.6112 9.58363 11.5165 9.64945 11.4024C9.71528 11.2884 9.74992 11.159 9.74989 11.0273V4.27734C9.74922 4.15777 9.71997 4.04009 9.66458 3.93412C9.60919 3.82815 9.52926 3.73695 9.43147 3.66815C9.33367 3.59934 9.22084 3.55492 9.10239 3.53858C8.98393 3.52224 8.86329 3.53446 8.75052 3.57422C6.56143 4.34898 4.7205 5.8792 3.55866 7.88978C2.39681 9.90037 1.99026 12.2595 2.41208 14.543C2.43395 14.6611 2.48385 14.7722 2.55759 14.8669C2.63133 14.9617 2.72675 15.0374 2.83583 15.0877C2.93413 15.1336 3.04137 15.1573 3.14989 15.157C3.28153 15.1571 3.41086 15.1225 3.52489 15.0567L9.37489 11.677ZM8.24989 5.41359V10.5942L3.76114 13.1845C3.74989 13.043 3.74989 12.9005 3.74989 12.7617C3.75122 11.2414 4.17204 9.751 4.96601 8.45451C5.75998 7.15802 6.89631 6.10576 8.24989 5.41359ZM21.7499 12.7617C21.7506 14.9022 21.047 16.9834 19.7476 18.6842C18.4481 20.3851 16.6251 21.6111 14.5598 22.173C12.4944 22.735 10.3016 22.6017 8.31948 21.7938C6.3374 20.9858 4.67627 19.5481 3.59239 17.7023C3.54187 17.6171 3.50874 17.5227 3.49492 17.4245C3.4811 17.3264 3.48687 17.2265 3.51188 17.1306C3.5369 17.0347 3.58068 16.9447 3.64068 16.8659C3.70068 16.787 3.77572 16.7208 3.86146 16.6711L11.2499 12.3708V3.76172C11.2499 3.56281 11.3289 3.37204 11.4696 3.23139C11.6102 3.09074 11.801 3.01172 11.9999 3.01172C13.7013 3.01259 15.373 3.45847 16.8488 4.3051C18.3247 5.15173 19.5534 6.36966 20.413 7.83797C20.4233 7.85297 20.4327 7.86797 20.4421 7.88391C20.4515 7.89984 20.4608 7.91859 20.4693 7.93547C21.3105 9.40469 21.752 11.0687 21.7499 12.7617Z" fill="#272D40"/>
</svg>
