<svg width="25" height="24" viewBox="0 0 25 24" fill="none" xmlns="http://www.w3.org/2000/svg">
<path d="M12.3416 7.50004C11.4516 7.50004 10.5815 7.76396 9.84153 8.25843C9.10151 8.7529 8.52473 9.4557 8.18414 10.278C7.84354 11.1002 7.75443 12.005 7.92806 12.8779C8.1017 13.7509 8.53028 14.5527 9.15961 15.182C9.78895 15.8114 10.5908 16.2399 11.4637 16.4136C12.3366 16.5872 13.2414 16.4981 14.0637 16.1575C14.8859 15.8169 15.5887 15.2401 16.0832 14.5001C16.5777 13.7601 16.8416 12.8901 16.8416 12C16.8404 10.8069 16.3659 9.66308 15.5222 8.81943C14.6786 7.97579 13.5347 7.50128 12.3416 7.50004ZM12.3416 15C11.7483 15 11.1682 14.8241 10.6749 14.4945C10.1815 14.1648 9.79702 13.6963 9.56996 13.1481C9.34289 12.5999 9.28348 11.9967 9.39924 11.4148C9.51499 10.8328 9.80072 10.2983 10.2203 9.87872C10.6398 9.45916 11.1744 9.17344 11.7563 9.05769C12.3383 8.94193 12.9415 9.00134 13.4896 9.2284C14.0378 9.45547 14.5064 9.83998 14.836 10.3333C15.1656 10.8267 15.3416 11.4067 15.3416 12C15.3416 12.7957 15.0255 13.5588 14.4629 14.1214C13.9003 14.684 13.1372 15 12.3416 15ZM20.5916 12.2025C20.5953 12.0675 20.5953 11.9325 20.5916 11.7975L21.9903 10.05C22.0637 9.95829 22.1145 9.85059 22.1386 9.73563C22.1627 9.62067 22.1594 9.50165 22.1291 9.38817C21.8998 8.52623 21.5568 7.69865 21.1091 6.92723C21.0505 6.82628 20.9691 6.7404 20.8714 6.67644C20.7738 6.61248 20.6626 6.57219 20.5466 6.55879L18.3228 6.31129C18.2303 6.21379 18.1366 6.12004 18.0416 6.03004L17.7791 3.80067C17.7656 3.68462 17.7252 3.57332 17.661 3.47566C17.5969 3.37801 17.5108 3.29668 17.4097 3.23817C16.638 2.79131 15.8105 2.44864 14.9488 2.21911C14.8352 2.18891 14.7162 2.18583 14.6012 2.21009C14.4862 2.23435 14.3786 2.28529 14.2869 2.35879L12.5441 3.75004C12.4091 3.75004 12.2741 3.75004 12.1391 3.75004L10.3916 2.35411C10.2998 2.28076 10.1921 2.23 10.0772 2.2059C9.96222 2.1818 9.8432 2.18504 9.72972 2.21536C8.86792 2.44507 8.0404 2.78806 7.26878 3.23536C7.16783 3.29397 7.08196 3.37535 7.01799 3.473C6.95403 3.57065 6.91374 3.68189 6.90035 3.79785L6.65285 6.02535C6.55535 6.11848 6.4616 6.21223 6.3716 6.3066L4.14222 6.56254C4.02617 6.57604 3.91488 6.61647 3.81722 6.6806C3.71956 6.74473 3.63823 6.83079 3.57972 6.93192C3.13286 7.70363 2.79019 8.53114 2.56066 9.39286C2.53047 9.50641 2.52738 9.62547 2.55164 9.74044C2.57591 9.8554 2.62684 9.96306 2.70035 10.0547L4.0916 11.7975C4.0916 11.9325 4.0916 12.0675 4.0916 12.2025L2.69566 13.95C2.62232 14.0418 2.57155 14.1495 2.54745 14.2645C2.52335 14.3794 2.52659 14.4984 2.55691 14.6119C2.78621 15.4739 3.12922 16.3014 3.57691 17.0729C3.63553 17.1738 3.7169 17.2597 3.81455 17.3236C3.91221 17.3876 4.02344 17.4279 4.13941 17.4413L6.36316 17.6888C6.45628 17.7863 6.55003 17.88 6.64441 17.97L6.9041 20.1994C6.9176 20.3155 6.95802 20.4268 7.02215 20.5244C7.08628 20.6221 7.17234 20.7034 7.27347 20.7619C8.04519 21.2088 8.8727 21.5514 9.73441 21.781C9.84796 21.8112 9.96702 21.8143 10.082 21.79C10.197 21.7657 10.3046 21.7148 10.3963 21.6413L12.1391 20.25C12.2741 20.2538 12.4091 20.2538 12.5441 20.25L14.2916 21.6488C14.3833 21.7221 14.491 21.7729 14.606 21.797C14.721 21.8211 14.84 21.8179 14.9535 21.7875C15.8154 21.5582 16.643 21.2152 17.4144 20.7675C17.5154 20.7089 17.6012 20.6275 17.6652 20.5299C17.7292 20.4322 17.7694 20.321 17.7828 20.205L18.0303 17.9813C18.1278 17.8888 18.2216 17.795 18.3116 17.7L20.541 17.4375C20.657 17.424 20.7683 17.3836 20.866 17.3195C20.9636 17.2554 21.045 17.1693 21.1035 17.0682C21.5503 16.2965 21.893 15.4689 22.1225 14.6072C22.1527 14.4937 22.1558 14.3746 22.1315 14.2596C22.1073 14.1447 22.0563 14.037 21.9828 13.9454L20.5916 12.2025ZM19.0822 11.5932C19.0982 11.8642 19.0982 12.1359 19.0822 12.4069C19.0711 12.5925 19.1292 12.7755 19.2453 12.9207L20.5757 14.5829C20.423 15.068 20.2276 15.5386 19.9916 15.9891L17.8728 16.2291C17.6883 16.2496 17.518 16.3378 17.3947 16.4766C17.2143 16.6796 17.0221 16.8718 16.8191 17.0522C16.6803 17.1755 16.5921 17.3458 16.5716 17.5304L16.3363 19.6472C15.8858 19.8833 15.4152 20.0788 14.93 20.2313L13.2669 18.901C13.1338 18.7946 12.9685 18.7368 12.7982 18.7369H12.7532C12.4821 18.7529 12.2104 18.7529 11.9394 18.7369C11.7539 18.7257 11.5708 18.7839 11.4257 18.9L9.75878 20.2313C9.27366 20.0786 8.80306 19.8832 8.35253 19.6472L8.11253 17.5313C8.09205 17.3468 8.00386 17.1764 7.86503 17.0532C7.66207 16.8727 7.46987 16.6805 7.28941 16.4775C7.16616 16.3387 6.9958 16.2505 6.81128 16.23L4.69441 15.9938C4.45834 15.5433 4.26288 15.0727 4.11035 14.5875L5.44066 12.9244C5.55682 12.7793 5.61495 12.5962 5.60378 12.4107C5.58785 12.1397 5.58785 11.8679 5.60378 11.5969C5.61495 11.4114 5.55682 11.2283 5.44066 11.0832L4.11035 9.41723C4.26299 8.9321 4.45845 8.4615 4.69441 8.01098L6.81035 7.77098C6.99486 7.7505 7.16522 7.66231 7.28847 7.52348C7.46893 7.32052 7.66113 7.12831 7.8641 6.94785C8.00348 6.82452 8.09203 6.65377 8.11253 6.46879L8.34785 4.35286C8.79832 4.11679 9.26893 3.92132 9.7541 3.76879L11.4172 5.0991C11.5623 5.21527 11.7454 5.2734 11.931 5.26223C12.202 5.24629 12.4737 5.24629 12.7447 5.26223C12.9303 5.2734 13.1134 5.21527 13.2585 5.0991L14.9244 3.76879C15.4095 3.92144 15.8801 4.1169 16.3307 4.35286L16.5707 6.46879C16.5911 6.65331 16.6793 6.82367 16.8182 6.94692C17.0211 7.12738 17.2133 7.31958 17.3938 7.52254C17.517 7.66137 17.6874 7.74956 17.8719 7.77004L19.9888 8.00535C20.2249 8.45583 20.4203 8.92644 20.5728 9.4116L19.2425 11.0747C19.1253 11.2211 19.0671 11.406 19.0794 11.5932H19.0822Z" fill="#383E41"/>
</svg>
