<svg width="24" height="25" viewBox="0 0 24 25" fill="none" xmlns="http://www.w3.org/2000/svg">
<path d="M19.5 3.76172H4.5C4.10218 3.76172 3.72064 3.91975 3.43934 4.20106C3.15804 4.48236 3 4.86389 3 5.26172V20.2617C3 20.6595 3.15804 21.0411 3.43934 21.3224C3.72064 21.6037 4.10218 21.7617 4.5 21.7617H14.6897C14.8867 21.762 15.0818 21.7233 15.2638 21.6479C15.4458 21.5724 15.611 21.4617 15.75 21.322L20.5603 16.5117C20.7 16.3727 20.8107 16.2075 20.8862 16.0255C20.9616 15.8435 21.0003 15.6484 21 15.4514V5.26172C21 4.86389 20.842 4.48236 20.5607 4.20106C20.2794 3.91975 19.8978 3.76172 19.5 3.76172ZM9 9.01172H15C15.1989 9.01172 15.3897 9.09074 15.5303 9.23139C15.671 9.37204 15.75 9.56281 15.75 9.76172C15.75 9.96063 15.671 10.1514 15.5303 10.292C15.3897 10.4327 15.1989 10.5117 15 10.5117H9C8.80109 10.5117 8.61032 10.4327 8.46967 10.292C8.32902 10.1514 8.25 9.96063 8.25 9.76172C8.25 9.56281 8.32902 9.37204 8.46967 9.23139C8.61032 9.09074 8.80109 9.01172 9 9.01172ZM12 16.5117H9C8.80109 16.5117 8.61032 16.4327 8.46967 16.292C8.32902 16.1514 8.25 15.9606 8.25 15.7617C8.25 15.5628 8.32902 15.372 8.46967 15.2314C8.61032 15.0907 8.80109 15.0117 9 15.0117H12C12.1989 15.0117 12.3897 15.0907 12.5303 15.2314C12.671 15.372 12.75 15.5628 12.75 15.7617C12.75 15.9606 12.671 16.1514 12.5303 16.292C12.3897 16.4327 12.1989 16.5117 12 16.5117ZM9 13.5117C8.80109 13.5117 8.61032 13.4327 8.46967 13.292C8.32902 13.1514 8.25 12.9606 8.25 12.7617C8.25 12.5628 8.32902 12.372 8.46967 12.2314C8.61032 12.0907 8.80109 12.0117 9 12.0117H15C15.1989 12.0117 15.3897 12.0907 15.5303 12.2314C15.671 12.372 15.75 12.5628 15.75 12.7617C15.75 12.9606 15.671 13.1514 15.5303 13.292C15.3897 13.4327 15.1989 13.5117 15 13.5117H9ZM15 19.9514V15.7617H19.1906L15 19.9514Z" fill="#272D40"/>
</svg>
