<svg width="24" height="25" viewBox="0 0 24 25" fill="none" xmlns="http://www.w3.org/2000/svg">
<path d="M8.25 9.76172C8.25 9.56281 8.32902 9.37204 8.46967 9.23139C8.61032 9.09074 8.80109 9.01172 9 9.01172H15C15.1989 9.01172 15.3897 9.09074 15.5303 9.23139C15.671 9.37204 15.75 9.56281 15.75 9.76172C15.75 9.96063 15.671 10.1514 15.5303 10.292C15.3897 10.4327 15.1989 10.5117 15 10.5117H9C8.80109 10.5117 8.61032 10.4327 8.46967 10.292C8.32902 10.1514 8.25 9.96063 8.25 9.76172ZM9 13.5117H15C15.1989 13.5117 15.3897 13.4327 15.5303 13.292C15.671 13.1514 15.75 12.9606 15.75 12.7617C15.75 12.5628 15.671 12.372 15.5303 12.2314C15.3897 12.0907 15.1989 12.0117 15 12.0117H9C8.80109 12.0117 8.61032 12.0907 8.46967 12.2314C8.32902 12.372 8.25 12.5628 8.25 12.7617C8.25 12.9606 8.32902 13.1514 8.46967 13.292C8.61032 13.4327 8.80109 13.5117 9 13.5117ZM12 15.0117H9C8.80109 15.0117 8.61032 15.0907 8.46967 15.2314C8.32902 15.372 8.25 15.5628 8.25 15.7617C8.25 15.9606 8.32902 16.1514 8.46967 16.292C8.61032 16.4327 8.80109 16.5117 9 16.5117H12C12.1989 16.5117 12.3897 16.4327 12.5303 16.292C12.671 16.1514 12.75 15.9606 12.75 15.7617C12.75 15.5628 12.671 15.372 12.5303 15.2314C12.3897 15.0907 12.1989 15.0117 12 15.0117ZM21 5.26172V15.4514C21.0006 15.6485 20.9621 15.8437 20.8866 16.0257C20.8111 16.2077 20.7002 16.3729 20.5603 16.5117L15.75 21.322C15.6112 21.4619 15.446 21.5728 15.264 21.6483C15.082 21.7238 14.8867 21.7623 14.6897 21.7617H4.5C4.10218 21.7617 3.72064 21.6037 3.43934 21.3224C3.15804 21.0411 3 20.6595 3 20.2617V5.26172C3 4.86389 3.15804 4.48236 3.43934 4.20106C3.72064 3.91975 4.10218 3.76172 4.5 3.76172H19.5C19.8978 3.76172 20.2794 3.91975 20.5607 4.20106C20.842 4.48236 21 4.86389 21 5.26172ZM4.5 20.2617H14.25V15.7617C14.25 15.5628 14.329 15.372 14.4697 15.2314C14.6103 15.0907 14.8011 15.0117 15 15.0117H19.5V5.26172H4.5V20.2617ZM15.75 16.5117V19.2023L18.4397 16.5117H15.75Z" fill="#383E41"/>
</svg>
