<svg width="25" height="24" viewBox="0 0 25 24" fill="none" xmlns="http://www.w3.org/2000/svg">
<path d="M21.8112 2.68851C21.6226 2.50001 21.3872 2.3652 21.1291 2.29797C20.871 2.23074 20.5997 2.23351 20.3431 2.30601H20.3291L2.33468 7.76601C2.04255 7.8502 1.7829 8.02117 1.59013 8.25627C1.39737 8.49136 1.28059 8.77948 1.25528 9.08245C1.22996 9.38541 1.29731 9.68891 1.44838 9.95274C1.59946 10.2166 1.82714 10.4283 2.10124 10.5598L10.0625 14.4373L13.9344 22.3938C14.0548 22.6508 14.2463 22.868 14.4861 23.0196C14.726 23.1713 15.0043 23.2512 15.2881 23.2498C15.3312 23.2498 15.3744 23.2479 15.4175 23.2441C15.7202 23.2196 16.0082 23.1031 16.2428 22.9102C16.4774 22.7174 16.6474 22.4573 16.73 22.1651L22.1862 4.1707C22.1862 4.16601 22.1862 4.16132 22.1862 4.15664C22.2597 3.90066 22.2637 3.62976 22.1978 3.37174C22.1318 3.11373 21.9984 2.87791 21.8112 2.68851ZM15.2966 21.7357L15.2919 21.7488V21.7423L11.5362 14.0266L16.0362 9.52664C16.171 9.38484 16.2449 9.19603 16.2424 9.00045C16.2399 8.80488 16.1611 8.61803 16.0228 8.47973C15.8845 8.34143 15.6977 8.26262 15.5021 8.26012C15.3065 8.25761 15.1177 8.33161 14.9759 8.46632L10.4759 12.9663L2.75749 9.2107H2.75093H2.76405L20.75 3.74976L15.2966 21.7357Z" fill="white"/>
</svg>
