<svg width="25" height="24" viewBox="0 0 25 24" fill="none" xmlns="http://www.w3.org/2000/svg">
<path d="M11.5916 20.25C11.5916 20.4489 11.5125 20.6397 11.3719 20.7803C11.2312 20.921 11.0405 21 10.8416 21H4.84155C4.64264 21 4.45188 20.921 4.31122 20.7803C4.17057 20.6397 4.09155 20.4489 4.09155 20.25V3.75C4.09155 3.55109 4.17057 3.36032 4.31122 3.21967C4.45188 3.07902 4.64264 3 4.84155 3H10.8416C11.0405 3 11.2312 3.07902 11.3719 3.21967C11.5125 3.36032 11.5916 3.55109 11.5916 3.75C11.5916 3.94891 11.5125 4.13968 11.3719 4.28033C11.2312 4.42098 11.0405 4.5 10.8416 4.5H5.59155V19.5H10.8416C11.0405 19.5 11.2312 19.579 11.3719 19.7197C11.5125 19.8603 11.5916 20.0511 11.5916 20.25ZM21.8722 11.4694L18.1222 7.71937C17.9814 7.57864 17.7906 7.49958 17.5916 7.49958C17.3925 7.49958 17.2017 7.57864 17.0609 7.71937C16.9202 7.86011 16.8411 8.05098 16.8411 8.25C16.8411 8.44902 16.9202 8.63989 17.0609 8.78063L19.5312 11.25H10.8416C10.6426 11.25 10.4519 11.329 10.3112 11.4697C10.1706 11.6103 10.0916 11.8011 10.0916 12C10.0916 12.1989 10.1706 12.3897 10.3112 12.5303C10.4519 12.671 10.6426 12.75 10.8416 12.75H19.5312L17.0609 15.2194C16.9202 15.3601 16.8411 15.551 16.8411 15.75C16.8411 15.949 16.9202 16.1399 17.0609 16.2806C17.2017 16.4214 17.3925 16.5004 17.5916 16.5004C17.7906 16.5004 17.9814 16.4214 18.1222 16.2806L21.8722 12.5306C21.9419 12.461 21.9972 12.3783 22.035 12.2872C22.0727 12.1962 22.0921 12.0986 22.0921 12C22.0921 11.9014 22.0727 11.8038 22.035 11.7128C21.9972 11.6217 21.9419 11.539 21.8722 11.4694Z" fill="#E8EAEC"/>
</svg>
