<svg width="24" height="25" viewBox="0 0 24 25" fill="none" xmlns="http://www.w3.org/2000/svg">
<path d="M21.2372 6.05015L12.2372 3.05015C12.0832 2.99883 11.9168 2.99883 11.7628 3.05015L2.76281 6.05015C2.61347 6.09993 2.48358 6.19545 2.39155 6.32315C2.29951 6.45086 2.24999 6.60429 2.25 6.76171V14.2617C2.25 14.4606 2.32902 14.6514 2.46967 14.792C2.61032 14.9327 2.80109 15.0117 3 15.0117C3.19891 15.0117 3.38968 14.9327 3.53033 14.792C3.67098 14.6514 3.75 14.4606 3.75 14.2617V7.80234L6.89906 8.8514C6.0624 10.2031 5.79634 11.8316 6.15931 13.3792C6.52229 14.9269 7.48462 16.2673 8.835 17.1061C7.1475 17.768 5.68875 18.9651 4.62187 20.602C4.56639 20.6845 4.52785 20.7772 4.50849 20.8747C4.48914 20.9721 4.48936 21.0725 4.50913 21.1699C4.52891 21.2673 4.56785 21.3598 4.62369 21.4421C4.67953 21.5243 4.75116 21.5946 4.83441 21.6489C4.91766 21.7032 5.01087 21.7404 5.10863 21.7584C5.20639 21.7763 5.30674 21.7747 5.40386 21.7535C5.50097 21.7323 5.59291 21.6921 5.67433 21.6351C5.75575 21.578 5.82502 21.5054 5.87813 21.4214C7.29094 19.2539 9.52219 18.0117 12 18.0117C14.4778 18.0117 16.7091 19.2539 18.1219 21.4214C18.2319 21.5849 18.4018 21.6985 18.5949 21.7377C18.788 21.7769 18.9888 21.7386 19.1539 21.6309C19.3189 21.5233 19.435 21.355 19.4769 21.1624C19.5189 20.9699 19.4834 20.7686 19.3781 20.602C18.3112 18.9651 16.8469 17.768 15.165 17.1061C16.5141 16.2674 17.4755 14.9278 17.8384 13.3813C18.2013 11.8347 17.9361 10.2074 17.1009 8.85609L21.2372 7.47796C21.3866 7.42821 21.5165 7.33271 21.6086 7.205C21.7006 7.07729 21.7502 6.92384 21.7502 6.7664C21.7502 6.60896 21.7006 6.45551 21.6086 6.3278C21.5165 6.20009 21.3866 6.10459 21.2372 6.05484V6.05015ZM16.5 12.0117C16.5002 12.7231 16.3317 13.4245 16.0084 14.0582C15.6851 14.6919 15.2161 15.2399 14.6399 15.6573C14.0638 16.0746 13.3969 16.3494 12.694 16.4592C11.9911 16.5689 11.2722 16.5104 10.5962 16.2884C9.92031 16.0665 9.30663 15.6875 8.80555 15.1825C8.30448 14.6774 7.93028 14.0608 7.71367 13.3831C7.49705 12.7055 7.44419 11.9861 7.55942 11.2841C7.67465 10.5821 7.95469 9.91737 8.37656 9.34453L11.7628 10.4695C11.9168 10.5208 12.0832 10.5208 12.2372 10.4695L15.6234 9.34453C16.1932 10.117 16.5005 11.0518 16.5 12.0117ZM12 8.9714L5.37187 6.76171L12 4.55203L18.6281 6.76171L12 8.9714Z" fill="#383E41"/>
</svg>
