<svg width="24" height="25" viewBox="0 0 24 25" fill="none" xmlns="http://www.w3.org/2000/svg">
<path d="M21.2372 6.05021L12.2372 3.05021C12.0832 2.99889 11.9168 2.99889 11.7628 3.05021L2.76281 6.05021C2.61347 6.09999 2.48358 6.19551 2.39155 6.32322C2.29951 6.45092 2.24999 6.60436 2.25 6.76177V14.2618C2.25 14.4607 2.32902 14.6515 2.46967 14.7921C2.61032 14.9328 2.80109 15.0118 3 15.0118C3.19891 15.0118 3.38968 14.9328 3.53033 14.7921C3.67098 14.6515 3.75 14.4607 3.75 14.2618V7.8024L6.89906 8.85146C6.0624 10.2032 5.79634 11.8316 6.15931 13.3793C6.52229 14.927 7.48461 16.2674 8.835 17.1061C7.1475 17.768 5.68875 18.9652 4.62187 20.6021C4.56639 20.6846 4.52785 20.7772 4.50849 20.8747C4.48914 20.9722 4.48936 21.0726 4.50913 21.17C4.52891 21.2674 4.56785 21.3599 4.62369 21.4421C4.67953 21.5243 4.75116 21.5947 4.83441 21.649C4.91766 21.7032 5.01087 21.7405 5.10863 21.7584C5.20639 21.7764 5.30674 21.7747 5.40386 21.7536C5.50097 21.7324 5.59291 21.6921 5.67433 21.6351C5.75575 21.5781 5.82502 21.5055 5.87812 21.4215C7.29094 19.254 9.52219 18.0118 12 18.0118C14.4778 18.0118 16.7091 19.254 18.1219 21.4215C18.2319 21.585 18.4018 21.6986 18.5949 21.7378C18.788 21.777 18.9888 21.7386 19.1539 21.631C19.3189 21.5233 19.435 21.355 19.4769 21.1625C19.5189 20.97 19.4834 20.7687 19.3781 20.6021C18.3112 18.9652 16.8469 17.768 15.165 17.1061C16.5141 16.2674 17.4755 14.9279 17.8384 13.3813C18.2013 11.8348 17.9361 10.2074 17.1009 8.85615L21.2372 7.47802C21.3866 7.42827 21.5165 7.33277 21.6086 7.20506C21.7006 7.07735 21.7502 6.9239 21.7502 6.76646C21.7502 6.60902 21.7006 6.45558 21.6086 6.32786C21.5165 6.20015 21.3866 6.10465 21.2372 6.0549V6.05021ZM16.5 12.0118C16.5002 12.7232 16.3317 13.4245 16.0084 14.0582C15.6851 14.692 15.2161 15.24 14.6399 15.6573C14.0638 16.0747 13.3969 16.3495 12.694 16.4592C11.9911 16.5689 11.2722 16.5104 10.5962 16.2885C9.92031 16.0666 9.30663 15.6875 8.80555 15.1825C8.30448 14.6775 7.93028 14.0609 7.71367 13.3832C7.49705 12.7056 7.44419 11.9862 7.55942 11.2842C7.67465 10.5821 7.95469 9.91743 8.37656 9.34459L11.7628 10.4696C11.9168 10.5209 12.0832 10.5209 12.2372 10.4696L15.6234 9.34459C16.1932 10.1171 16.5005 11.0519 16.5 12.0118Z" fill="#272D40"/>
</svg>
