<svg width="86" height="86" viewBox="0 0 86 86" fill="none" xmlns="http://www.w3.org/2000/svg">
<path d="M55.792 28.0192C61.1432 28.0192 66.2756 31.1547 70.0595 36.736C73.1994 41.3672 75.1978 47.3678 75.7872 53.7861C75.9892 55.986 74.1788 57.7809 71.9697 57.7809H64.9853C62.7762 57.7809 61.0825 55.9213 60.2577 53.8719C60.0385 53.3272 59.7726 52.8203 59.4638 52.3649C58.4899 50.9284 57.1692 50.1207 55.792 50.1207C54.4148 50.1208 53.0939 50.9285 52.1201 52.3649C51.8114 52.8203 51.5456 53.3271 51.3265 53.8717C50.5022 55.9213 48.8087 57.7809 46.5996 57.7809H39.2031C36.994 57.7809 35.3005 55.9213 34.4761 53.8717C34.257 53.3271 33.9913 52.8203 33.6826 52.3649C32.7087 50.9284 31.387 50.1207 30.0097 50.1207C28.6326 50.1209 27.3116 50.9285 26.3379 52.3649C26.0292 52.8203 25.7634 53.3271 25.5443 53.8717C24.7199 55.9213 23.0265 57.7809 20.8173 57.7809H13.833C11.6238 57.7809 9.81349 55.986 10.0154 53.7861C10.6046 47.3679 12.6024 41.3672 15.7422 36.736C19.526 31.1547 24.6585 28.0193 30.0097 28.0192C33.3188 28.0192 36.5438 29.2185 39.4181 31.4536C41.4163 33.0074 44.3863 33.0074 46.3845 31.4535C49.2586 29.2186 52.4831 28.0192 55.792 28.0192Z" fill="#E54923"/>
</svg>
