<svg width="208" height="30" viewBox="0 0 208 30" fill="none" xmlns="http://www.w3.org/2000/svg">
<path d="M45.7919 0C51.1431 5.95914e-07 56.2755 3.1356 60.0594 8.7168C63.1993 13.348 65.1977 19.3487 65.7871 25.7669C65.9891 27.9668 64.1787 29.7617 61.9696 29.7617H54.9852C52.7761 29.7617 51.0826 27.9021 50.2582 25.8526C50.0392 25.3079 49.7734 24.8011 49.4647 24.3457C48.4908 22.9092 47.1692 22.1016 45.7919 22.1016C44.4147 22.1017 43.0938 22.9094 42.12 24.3457C41.8113 24.8011 41.5455 25.3079 41.3265 25.8526C40.5021 27.9021 38.8086 29.7617 36.5995 29.7617H29.203C26.9939 29.7617 25.3004 27.9021 24.476 25.8526C24.257 25.3079 23.9912 24.8011 23.6825 24.3457C22.7087 22.9094 21.3877 22.1017 20.0106 22.1016C18.6333 22.1016 17.3117 22.9092 16.3378 24.3457C16.0291 24.8011 15.7633 25.3079 15.5442 25.8526C14.7199 27.9021 13.0264 29.7617 10.8173 29.7617H3.83288C1.62375 29.7617 -0.186599 27.9668 0.0154209 25.7669C0.604822 19.3487 2.60323 13.348 5.74304 8.7168C9.527 3.1356 14.6594 -5.95913e-07 20.0106 0C23.3195 0.00011103 26.544 1.19946 29.418 3.43438C31.4163 4.98825 34.3862 4.98825 36.3844 3.43438C39.2585 1.19946 42.483 0.000104116 45.7919 0Z" fill="#E54923"/>
<path d="M103.728 5.50382V24.3809H99.1299V13.06L94.9081 24.3809H91.1972L86.9486 13.0331V24.3809H82.3503V5.50382H87.7822L93.0796 18.5725L98.3232 5.50382H103.728ZM106.121 16.8516C106.121 15.3098 106.407 13.9564 106.981 12.7911C107.573 11.6259 108.37 10.7295 109.374 10.1021C110.378 9.47463 111.499 9.16091 112.736 9.16091C113.793 9.16091 114.717 9.37603 115.505 9.80628C116.312 10.2365 116.93 10.8012 117.361 11.5004V9.37603H121.959V24.3809H117.361V22.2565C116.913 22.9557 116.285 23.5204 115.478 23.9506C114.69 24.3809 113.766 24.596 112.709 24.596C111.49 24.596 110.378 24.2823 109.374 23.6548C108.37 23.0095 107.573 22.1041 106.981 20.9389C106.407 19.7557 106.121 18.3933 106.121 16.8516ZM117.361 16.8784C117.361 15.7311 117.038 14.8258 116.393 14.1625C115.765 13.4992 114.994 13.1676 114.08 13.1676C113.166 13.1676 112.386 13.4992 111.741 14.1625C111.113 14.8079 110.799 15.7042 110.799 16.8516C110.799 17.9989 111.113 18.9132 111.741 19.5944C112.386 20.2577 113.166 20.5893 114.08 20.5893C114.994 20.5893 115.765 20.2577 116.393 19.5944C117.038 18.9311 117.361 18.0258 117.361 16.8784ZM133.649 20.4818V24.3809H131.309C129.642 24.3809 128.342 23.9775 127.41 23.1708C126.478 22.3462 126.012 21.0106 126.012 19.1641V13.1945H124.183V9.37603H126.012V5.71894H130.61V9.37603H133.622V13.1945H130.61V19.2179C130.61 19.6661 130.717 19.9888 130.933 20.186C131.148 20.3832 131.506 20.4818 132.008 20.4818H133.649ZM145.433 9.21469C147.154 9.21469 148.535 9.78835 149.574 10.9357C150.614 12.0651 151.134 13.6247 151.134 15.6146V24.3809H146.563V16.2331C146.563 15.2292 146.303 14.4493 145.783 13.8936C145.263 13.3379 144.564 13.06 143.685 13.06C142.807 13.06 142.108 13.3379 141.588 13.8936C141.068 14.4493 140.808 15.2292 140.808 16.2331V24.3809H136.21V4.48198H140.808V11.3928C141.274 10.7295 141.911 10.2007 142.717 9.80628C143.524 9.41189 144.429 9.21469 145.433 9.21469ZM161.159 24.596C159.689 24.596 158.363 24.2823 157.18 23.6548C156.014 23.0274 155.091 22.131 154.41 20.9658C153.747 19.8005 153.415 18.4381 153.415 16.8784C153.415 15.3367 153.756 13.9832 154.437 12.818C155.118 11.6348 156.05 10.7295 157.233 10.1021C158.417 9.47463 159.743 9.16091 161.213 9.16091C162.683 9.16091 164.01 9.47463 165.193 10.1021C166.376 10.7295 167.308 11.6348 167.99 12.818C168.671 13.9832 169.011 15.3367 169.011 16.8784C169.011 18.4202 168.662 19.7826 167.963 20.9658C167.282 22.131 166.34 23.0274 165.139 23.6548C163.956 24.2823 162.629 24.596 161.159 24.596ZM161.159 20.6162C162.038 20.6162 162.782 20.2935 163.391 19.6482C164.019 19.0028 164.333 18.0795 164.333 16.8784C164.333 15.6773 164.028 14.7541 163.418 14.1087C162.827 13.4634 162.092 13.1407 161.213 13.1407C160.317 13.1407 159.573 13.4634 158.981 14.1087C158.39 14.7362 158.094 15.6594 158.094 16.8784C158.094 18.0795 158.381 19.0028 158.954 19.6482C159.546 20.2935 160.281 20.6162 161.159 20.6162ZM176.049 11.8768C176.587 11.0522 177.259 10.4068 178.066 9.94073C178.873 9.4567 179.769 9.21469 180.755 9.21469V14.0818H179.491C178.344 14.0818 177.483 14.3328 176.91 14.8348C176.336 15.3188 176.049 16.1793 176.049 17.4163V24.3809H171.451V9.37603H176.049V11.8768ZM185.265 7.81639C184.459 7.81639 183.795 7.58334 183.276 7.11724C182.774 6.63321 182.523 6.04163 182.523 5.34248C182.523 4.6254 182.774 4.03381 183.276 3.56771C183.795 3.08368 184.459 2.84167 185.265 2.84167C186.054 2.84167 186.7 3.08368 187.202 3.56771C187.721 4.03381 187.981 4.6254 187.981 5.34248C187.981 6.04163 187.721 6.63321 187.202 7.11724C186.7 7.58334 186.054 7.81639 185.265 7.81639ZM187.551 9.37603V24.3809H182.953V9.37603H187.551ZM189.969 16.8516C189.969 15.3098 190.256 13.9564 190.83 12.7911C191.421 11.6259 192.219 10.7295 193.223 10.1021C194.227 9.47463 195.347 9.16091 196.584 9.16091C197.642 9.16091 198.565 9.37603 199.354 9.80628C200.161 10.2365 200.779 10.8012 201.209 11.5004V9.37603H205.808V24.3809H201.209V22.2565C200.761 22.9557 200.134 23.5204 199.327 23.9506C198.538 24.3809 197.615 24.596 196.557 24.596C195.338 24.596 194.227 24.2823 193.223 23.6548C192.219 23.0095 191.421 22.1041 190.83 20.9389C190.256 19.7557 189.969 18.3933 189.969 16.8516ZM201.209 16.8784C201.209 15.7311 200.887 14.8258 200.241 14.1625C199.614 13.4992 198.843 13.1676 197.929 13.1676C197.014 13.1676 196.235 13.4992 195.589 14.1625C194.962 14.8079 194.648 15.7042 194.648 16.8516C194.648 17.9989 194.962 18.9132 195.589 19.5944C196.235 20.2577 197.014 20.5893 197.929 20.5893C198.843 20.5893 199.614 20.2577 200.241 19.5944C200.887 18.9311 201.209 18.0258 201.209 16.8784Z" fill="#272D40"/>
</svg>
